<?xml version="1.0" encoding="utf-8"?>
<svg xmlns="http://www.w3.org/2000/svg" height="32" width="32" viewBox="0 0 32 32">
  <g>
    <path id="path1" transform="rotate(0,16,16) translate(2,4.09999966621399) scale(0.875,0.875)  " fill="#FFFFFF" d="M12.900024,16.399998L32,16.399998 32,17.799999 12.900024,17.799999C10.700012,17.799999 8.9000244,19.600002 8.9000244,21.799999 8.9000244,24.000004 10.700012,25.799999 12.900024,25.799999 15.100006,25.799999 16.900024,24.000004 16.900024,21.799999 16.900024,21.299999 16.800018,20.799999 16.600006,20.299999L18.100006,20.299999C18.200012,20.799999 18.300018,21.299999 18.300018,21.799999 18.300018,24.799999 15.900024,27.200001 12.900024,27.200001 9.9000244,27.200001 7.5,24.799999 7.5,21.799999 7.4000244,18.899998 9.9000244,16.399998 12.900024,16.399998z M21.400024,0.90000153C23.800018,0.90000153 25.700012,2.8000031 25.700012,5.2000008 25.700012,5.6000023 25.600006,6 25.5,6.4000015L24.300018,6.4000015C24.400024,6 24.5,5.7000008 24.5,5.2000008 24.5,3.5 23.100006,2.1000023 21.400024,2.1000023 19.700012,2.1000023 18.300018,3.5 18.300018,5.2000008 18.300018,6.9000015 19.700012,8.3000031 21.400024,8.3000031L32,8.3000031 32,9.4000015 21.400024,9.4000015C19,9.4000015 17.100006,7.5 17.100006,5.1000023 17.100006,2.9000015 19,0.90000153 21.400024,0.90000153z M6.7000122,0C10.400024,0 13.400024,3 13.400024,6.7000008 13.400024,7.3000031 13.300018,7.9000015 13.100006,8.5L11.200012,8.5C11.400024,7.9000015 11.600006,7.3000031 11.600006,6.7000008 11.600006,4 9.4000244,1.8000031 6.7000122,1.8000031 4,1.8000031 1.8000183,4 1.8000183,6.7000008 1.8000183,9.4000015 4,11.600002 6.7000122,11.600002L32,11.600002 32,13.400002 6.7000122,13.400002C3,13.400002 0,10.400002 0,6.7000008 0,3 3,0 6.7000122,0z" />
  </g>
</svg>

