<?xml version="1.0" encoding="utf-8"?>
<svg xmlns="http://www.w3.org/2000/svg" height="32" width="32" viewBox="0 0 32 32">
  <g>
    <path id="path1" transform="rotate(0,16,16) translate(3.65637699885625,2) scale(0.874999895691897,0.874999895691897)  " fill="#FFFFFF" d="M0,29.643999L24.154978,29.643999C24.154978,30.945002 18.747994,32.000002 12.078008,32.000002 5.4069844,32.000002 7.8076027E-08,30.945002 0,29.643999z M24.463022,15.71301C24.333994,15.71301,24.20698,15.725011,24.083017,15.748006L24.060984,15.753011 24.057993,15.78301C23.867012,17.46101,23.398018,19.043009,22.703987,20.468005L22.571968,20.730006 22.617989,20.794009C23.073982,21.406006 23.730965,21.789002 24.463022,21.789002 25.839975,21.789002 26.954966,20.429003 26.954966,18.751009 26.954966,17.07301 25.839975,15.71301 24.463022,15.71301z M0.10400391,14.075011L3.4329846,14.075011 3.4349988,14.093008C3.5520032,15.279013 4.1579605,19.740008 6.8540063,23.222 6.8540063,23.222 4.2319961,16.409008 4.9949971,14.099013L5.0039692,14.075011 24.154978,14.075011 24.154978,14.092009 24.269968,14.081007C24.333994,14.07701 24.39802,14.075011 24.463022,14.075011 26.534983,14.075011 28.213999,16.123005 28.213999,18.649006 28.213999,21.174006 26.534983,23.222 24.463022,23.222 23.492012,23.222 22.607002,22.772004 21.94001,22.034005L21.865974,21.947007 21.765999,22.100006C19.573006,25.370001 16.073004,27.487004 12.13001,27.487004 5.4889546,27.487004 0.10400402,21.482003 0.10400391,14.075011z M16.166998,2.4250817E-05C16.291998,0.0010236318 16.401007,0.03302129 16.463018,0.10701889 17.55097,1.4140171 19.618965,2.9200202 18.989998,4.8950175 18.153997,7.5170172 15.519964,9.048014 17.044989,11.992012 17.213995,12.319008 16.191961,12.654015 15.995001,12.273011 14.80097,9.9680122 15.909979,8.6290163 17.138006,6.6690181 17.870001,5.5010198 18.451971,4.1160186 17.536017,2.875022 16.917975,2.0390166 16.154974,1.3270191 15.490973,0.52902314 15.278997,0.27401844 15.792975,-0.0029817975 16.166998,2.4250817E-05z M11.414982,2.4250817E-05C11.539982,0.0010236318 11.648991,0.03302129 11.711002,0.10701889 12.799016,1.4140171 14.86701,2.9200202 14.237981,4.8950175 13.401982,7.5170172 10.768009,9.048014 12.292974,11.992012 12.46198,12.319008 11.440983,12.654015 11.243961,12.273011 10.049992,9.9680122 11.159,8.6290163 12.385991,6.6690181 13.117009,5.5010198 13.700017,4.1160186 12.784001,2.875022 12.166997,2.0390166 11.402958,1.3270191 10.738956,0.52902314 10.526981,0.27401844 11.040958,-0.0029817975 11.414982,2.4250817E-05z M6.6629663,2.4250817E-05C6.7879663,0.0010236318 6.8969751,0.03302129 6.9589868,0.10701889 8.047,1.4140171 10.114994,2.9200202 9.4859658,4.8950175 8.6499663,7.5170172 6.0159936,9.048014 7.5409575,11.992012 7.7099638,12.319008 6.6879907,12.654015 6.4920068,12.273011 5.2979756,9.9680122 6.4069849,8.6290163 7.6339751,6.6690181 8.3649931,5.5010198 8.948001,4.1160186 8.0329619,2.875022 7.4149809,2.0390166 6.6510034,1.3270191 5.9870019,0.52902314 5.7749653,0.27401844 6.2890039,-0.0029817975 6.6629663,2.4250817E-05z" />
  </g>
</svg>

