<?xml version="1.0" encoding="utf-8"?>
<svg xmlns="http://www.w3.org/2000/svg" height="32" width="32" viewBox="0 0 32 32">
  <g>
    <path id="path1" transform="rotate(0,16,16) translate(2.05035066998414,2) scale(0.874972264273663,0.874972264273663)  " fill="#008000" d="M9.5430002,18.28295L9.3637185,18.356651C6.2612886,19.652625 3.9224358,21.243478 3.1349068,21.988806 2.7158918,22.384814 2.1888733,23.028828 2.057869,23.856845 1.799859,25.486878 2.4598827,27.02591 3.0589046,28.029931 3.6549253,29.027952 4.6309605,29.714966 5.7360001,29.91197 6.1960163,29.993971 6.6460323,30.018972 7.0720472,29.986971 9.0861197,29.832968 10.599174,27.988931 10.444168,25.876886 10.236161,23.047703 10.944483,20.978375 11.243164,20.249811L11.243338,20.249392 11.063791,20.126861C10.453365,19.688806,9.9559159,19.113589,9.6216135,18.449399z M26.106791,15.07213C25.331033,15.064673 24.522519,15.256246 23.780816,15.665359 21.614535,16.860869 19.675578,17.266602 18.638906,17.40409L18.56001,17.414052 18.512054,17.612748C18.29672,18.413173,17.859696,19.129262,17.267759,19.696878L17.222612,19.738159 17.347809,19.840591C19.827137,21.831069 22.130663,23.119971 23.283752,23.493065 23.857718,23.678086 24.725748,23.842052 25.603786,23.579061 27.293703,23.068091 28.472763,21.814137 29.162694,20.852163 29.833705,19.919212 30.049644,18.815246 29.757656,17.820284 29.634733,17.403275 29.463715,17.020293 29.251682,16.682323 28.601667,15.649853 27.399722,15.08456 26.106791,15.07213z M13.907013,13.916011C12.387014,13.916011 11.152016,15.063009 11.152016,16.475008 11.152016,17.886006 12.387014,19.034004 13.907013,19.034004 15.427011,19.034004 16.66201,17.886006 16.66201,16.475008 16.66201,15.063009 15.427011,13.916011 13.907013,13.916011z M8.4392924,2.0003157C7.3865647,2.0157795 6.4121237,2.3867903 5.7156096,3.0456848 5.3906031,3.353693 5.1195984,3.6847029 4.910594,4.0307131 4.3625832,4.9387388 4.4335842,5.8237648 4.5875874,6.4057813 4.8615932,7.4348111 5.6066074,8.3518376 6.6306276,8.921854 9.2927117,10.400147 10.693259,12.190267 11.100778,12.769453L11.114059,12.788563 11.250258,12.695637C12.00928,12.203591,12.923764,11.916013,13.907013,11.916013L13.920985,11.916353 13.93358,11.858318C14.577623,8.8041205 14.434063,6.7296033 14.194777,5.5147557 14.086775,4.9667397 13.82077,4.1927176 13.169757,3.6197014 11.868731,2.4726677 10.126697,2.1146574 8.8946724,2.0156546 8.7416697,2.0031538 8.5896821,1.998107 8.4392924,2.0003157z M8.3891234,0.001206398C8.6094012,-0.0029821396 8.8315463,0.0037212372 9.0546756,0.021596909 10.589706,0.14560032 12.778749,0.60961437 14.490784,2.1186581 15.3398,2.8646793 15.915812,3.9057093 16.157817,5.1277447 16.539386,7.0665503 16.461279,9.4562485 15.931735,12.066943L15.876297,12.32699 15.966707,12.366239C17.213708,12.943165,18.15969,14.026895,18.512054,15.336934L18.526926,15.398566 18.5717,15.391931C19.467398,15.253492 21.055365,14.885615 22.814765,13.914411 23.807522,13.367176 24.889954,13.098209 25.947845,13.083627 27.967456,13.055789 29.897631,13.955087 30.943674,15.615342 31.254704,16.109344 31.500671,16.66032 31.675718,17.255301 32.144705,18.84625 31.820614,20.582183 30.786694,22.019115 29.916711,23.232087 28.409654,24.821022 26.181781,25.492996 25.689723,25.643016 25.169711,25.716988 24.634807,25.716988 23.993825,25.716988 23.331726,25.609997 22.669748,25.397022 21.213837,24.92603 18.453868,23.374081 15.568901,20.970171 15.515908,20.925796 15.468631,20.877141 15.427161,20.825137L15.408777,20.799583 15.319475,20.828621C14.87307,20.962072 14.398637,21.034002 13.907013,21.034002 13.6612,21.034002 13.419686,21.016019 13.183825,20.981356L13.1111,20.968866 13.094712,21.008451C12.883096,21.527895 12.260202,23.293927 12.438239,25.729883 12.674248,28.93795 10.335164,31.743008 7.2250528,31.981012 7.0540466,31.994013 6.8810406,32.001013 6.7060347,32.001013 6.2720194,32.001013 5.8300028,31.961012 5.3839874,31.88101 3.7079277,31.581005 2.2338753,30.551983 1.3418427,29.055952 0.5728159,27.767925 -0.27021503,25.766884 0.082798004,23.543839 0.25680447,22.447816 0.83682537,21.407794 1.7608576,20.535776 2.9037113,19.453878 5.5864639,17.762887 8.6489167,16.487021L9.1571326,16.281717 9.158217,16.240743C9.1952591,15.542358,9.3969612,14.884968,9.7267485,14.303633L9.7515507,14.262324 9.6946726,14.215695C9.6321874,14.15738 9.5761862,14.090004 9.5286851,14.014001 9.5056849,13.977 8.3176613,12.146947 5.6596088,10.669905 4.163579,9.8378806 3.0685577,8.4708409 2.6545496,6.9207964 2.2955418,5.5687575 2.487546,4.1747169 3.1985598,2.9966831 3.5005655,2.4976683 3.8845739,2.0256548 4.3405828,1.5936422 5.3967285,0.59348869 6.8471794,0.030518532 8.3891234,0.001206398z" />
  </g>
</svg>

