<?xml version="1.0" encoding="utf-8"?>
<svg xmlns="http://www.w3.org/2000/svg" height="32" width="32" viewBox="0 0 32 32">
  <g>
    <path id="path1" transform="rotate(0,16,16) translate(6.17201656538158,2) scale(0.875000208616316,0.875000208616316)  " fill="#FFFFFF" d="M10.916565,1.1045971E-05C11.41328,-0.0018985825 11.911022,0.24379778 12.227873,0.7344178 12.484895,1.1324226 12.493867,1.6394039 12.32791,2.0833974 11.559898,4.1433657 11.736902,5.8043531 11.821864,6.6043294 11.844874,6.8173388 11.861903,6.9803308 11.86288,7.127332 12.303863,9.5312894 13.615886,11.581278 14.500903,12.742242 15.101921,10.064302 16.707952,8.7292989 17.683914,8.1473067 18.214924,7.831332 18.874964,7.870333 19.363981,8.2493251 19.860933,8.6363128 20.067966,9.2753118 19.88895,9.8802837 19.567963,10.96828 19.613983,12.528256 20.022983,14.395233 20.132971,14.898217 20.311987,15.42122 20.566935,15.991219 22.807005,21.001126 22.58099,24.185103 22.267998,25.162077 21.328964,30.418015 15.150933,31.58499 15.087944,31.595 14.535937,31.691983 14.027937,31.315981 13.93791,30.771006 13.847882,30.228014 14.214889,29.714014 14.758901,29.622006 14.845938,29.605007 19.666964,28.623026 20.309973,24.746098L20.388954,24.488076C20.385963,24.488076 21.006941,21.876114 18.740929,16.808194 18.428915,16.111212 18.209919,15.462204 18.068926,14.823236 17.722916,13.243242 17.605909,11.851263 17.717911,10.665276 17.065927,11.364271 16.481937,12.430265 16.312929,14.043248 16.249941,14.642239 15.839904,15.14623 15.269892,15.330218 14.703907,15.514205 14.077926,15.342211 13.680888,14.895226 12.744906,13.843239 10.501906,11.005267 9.8748865,7.368326L9.849862,7.2293203 9.8658532,7.087324C9.861886,7.0623305 9.8478479,6.9553373 9.8338708,6.8163317 9.7558669,6.0823639 9.6118841,4.7413796 9.9768772,3.0203961 9.2428617,3.8563827 8.4878511,5.1003531 8.1168756,6.8793495 8.10888,6.944351 8.0968561,7.0243366 8.0808648,7.1173223 7.7238669,9.1643203 7.7668361,10.771292 8.20788,11.896276 8.6858501,13.112262 8.909851,14.428222 8.8728637,15.806224 8.8418578,16.985194 8.6198711,17.905194 8.2088565,18.557162 8.0238571,18.851164 7.7538356,19.071162 7.4438352,19.215172 6.8628368,19.48415 6.1668467,19.172173 5.8788194,18.600159 5.8048443,18.452183 5.7518653,18.307165 5.747837,18.188179 5.7188448,17.399187 5.6578092,15.74522 4.497826,14.197238 4.6178221,16.231205 4.2598481,17.773176 3.4298238,18.793181 2.5518257,20.21714 0.36680928,24.567086 4.1288046,27.905051L4.2508149,28.030049C4.709803,28.430037 7.1318211,29.866997 9.1758451,30.002005 9.7268752,30.039023 10.14387,30.514998 10.10786,31.065985 10.072886,31.595 9.6328801,31.999993 9.1108417,31.999993 9.088869,31.999993 9.0668353,31.998986 9.0438861,31.997979 6.5448408,31.832972 3.5748445,30.188008 2.7788171,29.381012 -2.326207,24.825077 1.0247739,18.858181 1.7498167,17.708174L1.8557747,17.558182C2.495795,16.805203 2.6807939,15.156209 2.363836,13.03426 2.2708172,12.407255 2.5698311,11.801277 3.1287956,11.490276 3.6828167,11.183274 4.3508524,11.248275 4.8308367,11.655282 5.7078585,12.400267 6.3188257,13.221239 6.7438173,14.025243 6.6548271,13.542249 6.5228681,13.075245 6.3468413,12.626246 5.4768385,10.410275 5.9538321,7.674321 6.1108159,6.77434L6.1548228,6.4933384C6.8898754,2.9363824 8.9188842,1.0674211 10.062877,0.27144241 10.320874,0.091440962 10.618535,0.0011569505 10.916565,1.1045971E-05z" />
  </g>
</svg>

