<?xml version="1.0" encoding="utf-8"?>
<svg xmlns="http://www.w3.org/2000/svg" height="32" width="32" viewBox="0 0 32 32">
  <g>
    <path id="path1" transform="rotate(0,16,16) translate(2,8.94617103508508) scale(0.875273477051658,0.875273477051658)  " fill="#FFFFFF" d="M20.926033,4.2219898C19.646004,5.5109927 18.856024,7.2750332 18.856024,9.2169911 18.856024,11.146986 19.770027,13.265031 20.237007,13.529984 21.049019,14.07802 21.385994,13.873003 21.530037,13.78499 22.62104,13.115006 23.286018,10.159009 23.109993,8.7280375L23.101997,8.6049907C23.101997,6.904,22.224007,5.3779971,20.926033,4.2219898z M10.655033,3.8410079C9.3829986,5.0440123 8.5900298,6.7340171 8.5900298,8.6049907 8.5900298,10.156995 9.4929839,13.596024 10.585026,14.076006 10.82404,14.183 11.156986,14.042986 11.572025,13.662003L11.736027,13.513016C12.161015,12.886001 13.135015,10.62599 13.135015,9.2169911 13.135015,7.0750205 12.174992,5.1519839 10.655033,3.8410079z M15.294012,0C17.190008,5.127913E-08 19.177986,0.61700518 20.864021,1.684023 22.356026,0.66699303 24.161995,0.070007461 26.107004,0.070007379 28.249033,0.070007461 30.339001,0.81201274 31.990002,2.156985L30.727001,3.7080123C29.43104,2.6519808 27.789988,2.0709865 26.107004,2.0709865 24.812021,2.0709865 23.595039,2.4069852 22.542,2.9959752 24.068001,4.4650323 25.083017,6.3830034 25.101999,8.5460307 25.297007,10.346997 24.617014,14.237993 22.57502,15.491047 21.988045,15.851032 20.767037,16.297992 19.182015,15.229022 17.707037,14.391985 16.856024,11.133009 16.856024,9.2169911 16.856024,6.8499839 17.770025,4.6900079 19.268013,3.0629923 17.026007,1.8490012 14.351018,1.7050192 12.343022,2.6760287 14.065007,4.3369805 15.135016,6.6549761 15.135016,9.2169911 15.135016,10.602003 14.116033,14.123003 12.914006,15.128009L12.924016,15.137042C12.113041,15.880024 11.37598,16.118 10.763004,16.118 10.383,16.118 10.051029,16.02602 9.7800332,15.907001 7.3540064,14.839007 6.5900294,9.906018 6.5900294,8.6049907 6.5900294,6.3389971 7.4810206,4.2739918 8.9350005,2.7349889 8.007022,2.3090238 6.973025,2.0709865 5.8829976,2.0709865 4.1990372,2.0709865 2.5599984,2.6519808 1.2639773,3.7080123L0,2.156985C1.6519781,0.81201274 3.7410291,0.070007461 5.8829976,0.070007379 7.6090113,0.070007461 9.2250396,0.53900213 10.609013,1.3560196 11.96204,0.49798648 13.570989,5.127913E-08 15.294012,0z" />
  </g>
</svg>

