<?xml version="1.0" encoding="utf-8"?>
<svg xmlns="http://www.w3.org/2000/svg" height="32" width="32" viewBox="0 0 32 32">
  <g>
    <path id="path1" transform="rotate(0,16,16) translate(2,2.56874966621398) scale(0.875,0.875)  " fill="#FFFFFF" d="M7.3999939,28.299991L24.599998,28.299991C25.299995,28.299991,25.799995,28.899997,25.799995,29.499988L25.799995,30.7 6.1999969,30.7 6.1999969,29.499988C6.1999969,29.599994,6.6999969,28.299991,7.3999939,28.299991z M28.699997,21.299995C28.199997,21.299995 27.799995,21.700004 27.799995,22.200004 27.799995,22.700002 28.199997,23.099996 28.699997,23.099996 29.199997,23.099996 29.599998,22.700002 29.599998,22.200004 29.599998,21.700004 29.199997,21.299995 28.699997,21.299995z M17.5,14.999993C17.5,15.200006 17.399994,15.400003 17.399994,15.499993 17.399994,15.700006 17.299995,15.900003 17.299995,16.1L17.299995,16.400003C16.699997,16.299996 16.5,16.299996 15.799995,16.299996 15.299995,16.299996 15.199997,16.299996 15.099998,16.400003L15.099998,16.1C15.099998,15.999993 15.099998,15.799996 15,15.700006 15.199997,15.799996 15.599998,15.799996 16.099998,15.700006 16.699997,15.6 17.099998,15.299996 17.5,14.999993z M18.399994,13.499994L18.399994,13.700007C18.399994,13.900004,18.5,13.900004,18.5,13.999994L18.5,13.900004C18.5,13.700007,18.5,13.6,18.399994,13.499994z M13.399994,13.400004C13.599998,13.499994 13.699997,13.6 13.899994,13.799997 14.099998,13.999994 14.599998,14.400003 14.699997,14.499993 14.799995,14.6 14.799995,14.799996 14.699997,14.900003 14.699997,14.999993 14.599998,14.999993 14.5,14.999993L14.399994,14.900003C14.199997,14.6 14.099998,14.499993 14,14.299997 13.899994,14.200007 13.899994,14.1 13.799995,13.900004 13.699997,13.700007 13.5,13.499994 13.399994,13.400004z M13.161797,11.544339L13.112498,11.6625C13.049999,11.825,13,12.000003,13,12.200007L13.000174,12.295805 13.004492,12.191598C13.01914,12.016793,13.067967,11.866404,13.12656,11.667188z M13.5,10.799998C13.5,10.799998,13.299995,11.100001,13.299995,11.200008L13.290245,11.22642 13.301949,11.204664C13.43398,10.962498,13.5,10.881253,13.5,10.799998z M14.308228,8.8988486L14.326557,8.9234382C14.349995,8.9499999,14.374994,8.9749986,14.399994,8.9999963L14.399994,9.4999963C14.399994,9.7000085 14.299995,9.7000085 14.099998,9.9999953 14,10.100001 14,10.200008 14,10.299998L14,10.499995C14.099998,10.700008 14.299995,10.700008 14.299995,10.799998 14.299995,10.900004 14.099998,10.900004 13.899994,10.999995 13.799995,10.999995 13.799995,11.100001 13.699997,11.200008 13.599998,11.499995 13.299995,11.900004 13.199997,12.200007 13.149998,12.400004 13.099998,12.550001 13.062499,12.7125L13.057339,12.737748 13.066992,12.757813C13.076561,12.773437 13.087499,12.787499 13.099998,12.799997 13.099998,12.799997 13.199997,12.900004 13.199997,12.999994 13.149998,12.949995 13.106248,12.912496 13.067185,12.884371L13.033298,12.862578 13.017187,12.973436C13.011719,13.021092,13.007421,13.071482,13.004492,13.125583L13.001442,13.202224 13.057078,13.248317C13.283203,13.445706 13.562499,13.793753 13.699997,13.999994 13.899994,14.299997 14,14.400003 14.299995,14.900003 14.599998,15.400003 14.899994,15.499993 14.899994,15.999993 14.899994,16.400003 14.799995,16.400003 14.599998,16.6 14.399994,16.799996 14.299995,16.900003 13.899994,16.900003 13.5,16.900003 13,16.6 12.399994,16.400003 11.299995,16.200006 11.099998,16.1 11,15.900003 10.899994,15.799996 11,15.700006 11,15.499993 11,15.400003 11.099998,15.200006 11.099998,14.999993 11.099998,14.499993 11,14.299997 11.099998,14.1 11.199997,13.900004 11.799995,13.900004 12,13.799997 12.199997,13.6 12.399994,13.299997 12.5,13.200007 12.5,13.200007 12.599998,13.1 12.799995,13.1 12.812496,13.1 12.826168,13.102345 12.840865,13.106812L12.88569,13.125454 12.892722,13.101392C12.917479,13.013721,12.936522,12.936816,12.951171,12.867382L12.959712,12.824097 12.917769,12.810544C12.874995,12.799997 12.837495,12.799997 12.799995,12.799997 12.599998,12.799997 12.5,12.900004 12.399994,12.999994 12.299995,12.6 12.399994,12.499994 12.599998,11.999995 12.799995,11.499995 13.099998,10.900004 13.399994,10.299998 13.806244,9.7312518 14.212494,9.3605529 14.296919,8.9733478z M14.279459,8.321108L14.280367,8.3366052C14.287105,8.4539147 14.293745,8.5750085 14.299995,8.7000085 14.312495,8.7625085 14.31562,8.8234454 14.310541,8.8836013L14.308228,8.8988486 14.262496,8.8375016C14.224997,8.7750016 14.199997,8.7000009 14.199997,8.6000024 14.199997,8.4875012 14.228122,8.4031268 14.268551,8.3363305z M15.299995,7.6000029L15.299995,7.700009C15.299995,7.700009,15.399994,7.700009,15.399994,7.6000029z M15.196806,7.1765596L15.199997,7.200009C15.199997,7.2999998 15.299995,7.4000059 15.299995,7.4999968 15.299995,7.3999983 15.274996,7.3250013 15.237496,7.2500025z M16,4.9999977C16.399994,4.9999977 16.699997,5.1000038 16.799995,5.2000099 16.899994,5.3000008 17.199997,5.4000069 17.399994,5.6000038 17.599998,5.8000003 17.799995,6.1000033 17.799995,6.6000033 18,7.4000059 17.799995,7.1000029 18,8.1000024 18.199997,9.1000024 18.699997,9.4999963 19.199997,10.299998 19.699997,11.100001 20.299995,12.299997 20.099998,12.999994 20.099998,13.1 20,13.200007 20,13.299997L19.899994,13.299997 19.799995,13.299997 19.699997,13.299997C19.699997,13.200007 19.599998,13.1 19.399994,13.1 19.299995,13.1 19.199997,12.999994 19.199997,12.999994L18.899994,12.999994 18.799995,12.999994 18.799995,12.900004C18.899994,12.700007 19,12.200007 19,11.799998 18.899994,11.400004 18.799995,11.100001 18.5,10.799998 18.399994,10.700008 18.099998,10.499995 18.099998,10.600001 18.099998,10.600001 18.399994,10.700008 18.599998,11.100001 18.899994,11.400004 19,11.900004 18.899994,12.299997 18.899994,12.499994 18.799995,12.6 18.799995,12.799997 18.799995,12.900004 18.699997,12.999994 18.699997,13.1 18.599998,13.1 18.5,13.1 18.5,13.200007L18.399994,13.299997C18.399994,13.299997,18.5,13.200007,18.599998,13.200007L18.899994,13.200007C19,13.200007 19.099998,13.200007 19.299995,13.299997 19.399994,13.299997 19.5,13.400004 19.599998,13.499994L19.599998,13.6C19.599998,13.6,19.5,13.700007,19.5,13.799997L19.399994,13.900004C19.399994,13.900004 19.199997,14.1 19.099998,14.1 19,14.1 19,14.200007 18.899994,14.200007 19.099998,14.200007 19.199997,14.200007 19.299995,14.1 19.399994,13.999994 19.599998,13.900004 19.599998,13.799997 19.699997,13.700007 19.799995,13.499994 19.799995,13.499994 19.799995,13.499994 20,13.400004 20.099998,13.6 20.199997,13.799997 20.099998,14.1 20.199997,14.299997 20.399994,14.6 20.699997,14.900003 20.899994,14.900003 21,14.999993 21.099998,14.999993 21.099998,15.200006 21.099998,15.400003 21,15.400003 20.899994,15.499993 20.799995,15.6 20.199997,15.900003 19.899994,16.1 19.399994,16.400003 19.299995,16.6 19.099998,16.700006 18.899994,16.900003 18.699997,16.999993 18.299995,16.999993 18,16.999993 17.799995,16.900003 17.699997,16.799996 17.599998,16.700006 17.5,16.499993 17.5,16.1 17.5,15.700006 17.599998,15.400003 17.699997,14.900003L17.699997,14.1C17.699997,13.799997 17.699997,13.499994 17.799995,13.400004 17.899994,13.400004 17.899994,13.299997 18.099998,13.299997 18.124998,13.299997 18.149998,13.299997 18.174997,13.30156L18.199997,13.305206 18.199997,12.999994C18.199997,12.499994 18.099998,11.999995 18,11.600001 17.899994,11.299998 17.699997,10.999995 17.599998,10.700008 17.299995,10.100001 17.299995,9.7999984 17.099998,9.4000054 17.099998,8.9999963 17.099998,8.7999993 17,8.7000085 17.099998,8.6000024 17.099998,8.4000054 17.099998,8.2999993 17.099998,8.1000024 17,7.9999968 16.899994,7.9000059 17,7.7999998 17,7.7999998 17,7.700009 17.099998,7.4999968 17.099998,7.2999998 16.899994,6.9999968 16.799995,6.7000095 16.699997,6.7000095 16.5,6.7000095 16.199997,6.7000095 16,6.9000064 15.899994,7.1000029 15.799995,7.2999998 15.799995,7.2999998 15.799995,7.4999968L15.799995,7.5010491 15.848433,7.5015594C15.993746,7.5062471 16.124998,7.5249983 16.199997,7.6000029 16.199997,7.6000029 16.299995,7.6000029 16.299995,7.700009L16.299995,7.4000059C16.299995,7.2999998,16.299995,7.200009,16.399994,7.1000029L16.5,7.1000029C16.699997,7.1000029 16.799995,7.2999998 16.799995,7.4999968 16.799995,7.6000029 16.799995,7.700009 16.699997,7.7999998 16.599998,7.9000059 16.599998,7.9000059 16.5,7.9000059 16.799995,7.9000059 17.099998,7.9999968 17,8.2000085 17,8.4999963 16.899994,8.7000085 16.599998,8.7999993 16.399994,8.9000054 16,9.2999993 15.699997,9.2999993L15.299995,9.2999993C15.199997,9.2999993 15,9.1000024 14.899994,8.9000054 14.699997,8.7999993 14.599998,8.6000024 14.599998,8.4000054 14.599998,8.2000085 14.699997,8.1000024 14.899994,7.9999968L15,7.9000059C14.899994,7.9000059 14.899994,7.7999998 14.899994,7.7999998 14.899994,7.7999998 14.799995,7.6000029 14.799995,7.4999968L14.799995,7.200009C14.799995,7.1000029 14.899994,7.1000029 15,7.1000029 15.062499,7.1000029 15.124998,7.1000029 15.163084,7.1244184L15.172701,7.1330844 15.137302,7.0707036C15.124998,7.0484372 15.112498,7.0249983 15.099998,6.9999968 15,6.9000064 14.799995,6.8000003 14.699997,6.9000064 14.599998,6.9000064 14.599998,6.9999968 14.5,7.1000029 14.5,7.200009 14.399994,7.2999998 14.399994,7.4000059 14.399994,7.700009 14.399994,7.7999998 14.5,7.9999968L14.5,8.1000024C14.449997,8.1500054,14.374996,8.2000047,14.312496,8.2750035L14.279459,8.321108 14.270224,8.1634637C14.172166,6.516904 14.084374,5.6531349 14.899994,5.2000099 15.299995,4.9999977 15.699997,4.9999977 16,4.9999977z M3.6999969,2.6000053C3,2.600005,2.5,3.1000048,2.5,3.8000012L2.5,18.499992C2.5,19.200004,3.0999985,19.700004,3.6999969,19.700004L28.299995,19.700004C29,19.700004,29.5,19.099998,29.5,18.499992L29.5,3.8000012C29.5,3.1000048,28.899994,2.600005,28.299995,2.6000053z M1.1999969,0L30.699997,0C31.5,-1.0409804E-07,32,0.49999969,32,1.2000117L32,23.399999C32,24.099996,31.5,24.599996,30.799995,24.599996L20.199997,24.599996C20.299995,24.799993,20.299995,24.99999,20.299995,25.200002L20.299995,25.599996C20.299995,26.299993,19.799995,26.799993,19.099998,26.799993L12.799995,26.799993C12.099998,26.799993,11.599998,26.299993,11.599998,25.599996L11.599998,25.200002C11.599998,24.99999,11.699997,24.799993,11.699997,24.599996L1.1999969,24.599996C0.5,24.599996,0,24.099996,0,23.399999L0,1.2000117C0,0.49999969,0.5,-1.0409804E-07,1.1999969,0z" />
  </g>
</svg>

