<?xml version="1.0" encoding="utf-8"?>
<svg xmlns="http://www.w3.org/2000/svg" height="32" width="32" viewBox="0 0 32 32">
  <g>
    <path id="path1" transform="rotate(0,16,16) translate(2,4.05624949932098) scale(0.875,0.875)  " fill="#FFFFFF" d="M23.199951,24.500011L28.199951,24.500011 28.199951,25.199993C28.199951,26.400007,27.199951,27.300001,26.099976,27.300001L25.299988,27.300001C24.099976,27.300001,23.199951,26.300001,23.199951,25.199993z M4,24.500011L9.0999756,24.500011 9.0999756,25.199993C9.0999756,26.400007,8.0999756,27.300001,7,27.300001L6.0999756,27.300001C4.8999634,27.300001,4,26.300001,4,25.199993z M27.799988,17.799995C27.199951,17.799995 26.599976,18.299997 26.599976,19.00001 26.599976,19.699991 27.099976,20.199991 27.799988,20.199991 28.399963,20.199991 29,19.699991 29,19.00001 29,18.299997 28.399963,17.799995 27.799988,17.799995z M27.799988,14.400001C27.199951,14.400001 26.599976,14.900001 26.599976,15.599983 26.599976,16.199989 27.099976,16.799995 27.799988,16.799995 28.399963,16.799995 29,16.299995 29,15.599983 29,14.900001 28.399963,14.400001 27.799988,14.400001z M26.199951,10.000005C25.699951,10.000005 25.299988,10.399999 25.299988,10.899999 25.299988,11.4 25.699951,11.799994 26.199951,11.799994L29.5,11.799994C30,11.799994 30.399963,11.4 30.399963,10.899999 30.399963,10.399999 30,10.000005 29.5,10.000005z M26.199951,6.7999911C25.699951,6.7999911 25.299988,7.199985 25.299988,7.6999855 25.299988,8.1999855 25.699951,8.5999794 26.199951,8.5999794L29.5,8.5999794C30,8.5999794 30.399963,8.1999855 30.399963,7.6999855 30.399963,7.199985 30,6.7999911 29.5,6.7999911z M26.199951,3.7999897C25.699951,3.7999897 25.299988,4.1999836 25.299988,4.6999841 25.299988,5.1999841 25.699951,5.5999785 26.199951,5.5999785L29.5,5.5999785C30,5.5999785 30.399963,5.1999841 30.399963,4.6999841 30.399963,4.1999836 30,3.7999897 29.5,3.7999897z M4.1999512,2.7999892C3.5999756,2.7999892,3.0999756,3.2999895,3.0999756,4.0000019L3.0999756,16.699989C3.0999756,17.299995,3.5999756,17.799995,4.1999512,17.799995L22.199951,17.799995C22.799988,17.799995,23.299988,17.299995,23.299988,16.699989L23.299988,4.0000019C23.299988,3.3999956,22.799988,2.8999953,22.199951,2.8999953L4.1999512,2.8999953z M0,0L32,0 32,22.799999 0,22.799999z" />
  </g>
</svg>

