<?xml version="1.0" encoding="utf-8"?>
<svg xmlns="http://www.w3.org/2000/svg" height="32" width="32" viewBox="0 0 32 32">
  <g>
    <path id="path1" transform="rotate(0,16,16) translate(2,3.61875033378602) scale(0.875,0.875)  " fill="#008000" d="M20.799988,12.1C22.100006,12.1 23.100006,13.1 23.100006,14.399995 23.100006,15.699998 22.100006,16.699998 20.799988,16.699998 19.5,16.699998 18.5,15.699998 18.5,14.399995 18.5,13.1 19.5,12.1 20.799988,12.1z M11.899994,12.1C13.199982,12.1 14.199982,13.1 14.199982,14.399995 14.199982,15.699998 13.199982,16.699998 11.899994,16.699998 10.600006,16.699998 9.6000061,15.699998 9.6000061,14.399995 9.6000061,13.1 10.600006,12.1 11.899994,12.1z M18,3.7999954L18,5.2999957C18,6.5000007 17,7.5000007 15.799988,7.5000007 14.600006,7.5000007 13.600006,6.5000007 13.600006,5.2999957L13.600006,4.0000002C9,5.0999987 5.5,9.2999966 5.5,14.399995 5.5,19.500001 9,23.7 13.699982,24.799999L13.699982,23.399997C13.699982,22.2 14.699982,21.2 15.899994,21.2 17.100006,21.2 18.100006,22.2 18.100006,23.399997L18.100006,24.899997C23.199982,24.000003 27,19.6 27,14.299997 27,9.0000012 23.100006,4.6999972 18,3.7999954z M2.3999939,5.6843419E-14L29.5,5.6843419E-14C30.899994,-2.2782064E-07,32,1.0999983,32,2.3999939L32,25.899997C32,27.2,30.899994,28.299999,29.600006,28.299999L2.3999939,28.299999C1.1000061,28.299999,0,27.2,0,25.899997L0,2.3999939C0,1.0999983,1.1000061,-2.2782064E-07,2.3999939,5.6843419E-14z" />
  </g>
</svg>

