<?xml version="1.0" encoding="utf-8"?>
<svg xmlns="http://www.w3.org/2000/svg" height="32" width="32" viewBox="0 0 32 32">
  <g>
    <path id="path1" transform="rotate(0,16,16) translate(2,5.5) scale(0.875,0.875)  " fill="#FFFFFF" d="M12,20L12,22 20,22 20,20z M2,2L2,18 10,18 22,18 30,18 30,2z M1,0L31,0C31.552,0,32,0.44799995,32,1L32,19C32,19.552,31.552,20,31,20L22,20 22,22 27,22C27.552999,22 28,22.448 28,23 28,23.552 27.552999,24 27,24L22,24 10,24 5,24C4.447,24 4,23.552 4,23 4,22.448 4.447,22 5,22L10,22 10,20 1,20C0.44799995,20,0,19.552,0,19L0,1C0,0.44799995,0.44799995,0,1,0z" />
  </g>
</svg>

