<?xml version="1.0" encoding="utf-8"?>
<svg xmlns="http://www.w3.org/2000/svg" height="32" width="32" viewBox="0 0 32 32">
  <g>
    <path id="path1" transform="rotate(0,16,16) translate(3.79374933242798,2) scale(0.875,0.875)  " fill="#FFFFFF" d="M8.0000017,18.699982C8.1000079,19.5 8.800021,20.100006 9.6000088,20.100006 10.300021,20.100006 10.899997,19.699982 11.100009,19.100006 11.300021,19.699982 11.899997,20.100006 12.500003,20.100006 13.10001,20.100006 13.700016,19.699982 13.899998,19.199982 14.10001,19.699982 14.700016,20.100006 15.300022,20.100006 15.899998,20.100006 16.500004,19.699982 16.700016,19.199982 16.899998,19.799988 17.500004,20.199982 18.200016,20.199982 19.000006,20.199982 19.700018,19.600006 19.700018,18.799988 19.800024,19.299988 19.899999,19.899994 19.899999,20.399994 19.899999,23.799988 17.200016,26.5 13.800022,26.5 10.399997,26.5 7.7000144,23.799988 7.7000144,20.399994 7.8000205,19.799988 7.8000205,19.199982 8.0000017,18.699982z M13.899998,12.799988C9.7000149,12.799988 6.3000201,16.199982 6.3000201,20.399994 6.3000201,24.600006 9.7000149,28 13.899998,28 18.10001,28 21.500006,24.600006 21.500006,20.399994 21.500006,16.199982 18.10001,12.799988 13.899998,12.799988z M0,8.6000061L27.900001,8.6000061 27.900001,32 0,32z M24.100012,2.6000061L24.100012,3.7999878 25.399999,3.7999878 25.399999,2.6000061z M9.5000027,1.7999878C8.6000079,1.7999878 7.8000205,2.5 7.8000205,3.5 7.8000205,4.3999939 8.5000017,5.1999817 9.5000027,5.1999817 10.399997,5.1999817 11.200015,4.5 11.200015,3.5 11.200015,2.6000061 10.399997,1.7999878 9.5000027,1.7999878z M4.3000196,1.7999878C3.3999949,1.7999878 2.6000069,2.5 2.6000071,3.5 2.6000069,4.3999939 3.3000193,5.1999817 4.3000196,5.1999817 5.2000135,5.1999817 6.0000017,4.5 6.0000017,3.5 5.8999956,2.6000061 5.2000135,1.7999878 4.3000196,1.7999878z M0,0L27.900001,0 27.900001,6.8999939 0,6.8999939z" />
  </g>
</svg>

