<?xml version="1.0" encoding="utf-8"?>
<svg xmlns="http://www.w3.org/2000/svg" height="32" width="32" viewBox="0 0 32 32">
  <g>
    <path id="path1" transform="rotate(0,16,16) translate(2,2.56874966621399) scale(0.875,0.875)  " fill="#FFFFFF" d="M7.4000244,28.300036L24.599976,28.300036C25.299988,28.300036,25.799988,28.900012,25.799988,29.499988L25.799988,30.7 6.2000122,30.7 6.2000122,29.499988C6.2000122,29.600024,6.7000122,28.300036,7.4000244,28.300036z M28.700012,21.30004C28.200012,21.30004 27.799988,21.700004 27.799988,22.200004 27.799988,22.700004 28.200012,23.100026 28.700012,23.100026 29.200012,23.100026 29.599976,22.700004 29.599976,22.200004 29.599976,21.700004 29.200012,21.30004 28.700012,21.30004z M16.200012,11.800044C17.299988,12.600031,18.5,13.100031,21.200012,12.200007L20,16.60003C17.400024,17.700006,16.099976,17.10003,14.900024,16.300042z M13.099976,10.499995C14.099976,10.499995,14.900024,10.90002,15.5,11.40002L14.200012,15.900018C13.099976,15.10003,11.799988,14.499994,9.2000122,15.60003L10.5,11.100032C11.599976,10.700007,12.400024,10.499995,13.099976,10.499995z M17.799988,6.4999971C18.900024,7.300046,20.200012,7.9000211,22.900024,6.800046L21.599976,11.300044C19.099976,12.40002,17.700012,11.800044,16.5,10.999995z M14.5,5.2000098C15.599976,5.2000098,16.400024,5.6000342,17.099976,6.1000342L15.799988,10.600032C15.099976,10.100033 14.400024,9.7000084 13.299988,9.7000084 12.599976,9.7000084 11.799988,9.9000206 10.700012,10.300045L12,5.8000464C13,5.400022,13.799988,5.2000098,14.5,5.2000098z M3.7000122,2.6000352C3,2.6000354,2.5,3.1000354,2.5,3.8000469L2.5,18.499991C2.5,19.200004,3.0999756,19.700004,3.7000122,19.700004L28.299988,19.700004C29,19.700004,29.5,19.100028,29.5,18.499991L29.5,3.8000469C29.5,3.1000354,28.900024,2.6000354,28.299988,2.6000352z M1.2000122,0L30.700012,0C31.5,3.1941454E-09,32,0.49999979,32,1.2000117L32,23.400014C32,24.100026,31.5,24.600026,30.799988,24.600026L20.200012,24.600026C20.299988,24.800038,20.299988,24.99999,20.299988,25.200002L20.299988,25.600026C20.299988,26.300038,19.799988,26.800038,19.099976,26.800038L12.799988,26.800038C12.099976,26.800038,11.599976,26.300038,11.599976,25.600026L11.599976,25.200002C11.599976,24.99999,11.700012,24.800038,11.700012,24.600026L1.2000122,24.600026C0.5,24.600026,0,24.100026,0,23.400014L0,1.2000117C0,0.49999979,0.5,3.1941454E-09,1.2000122,0z" />
  </g>
</svg>

